<?xml version="1.0" encoding="UTF-8" standalone="no"?>
<!DOCTYPE svg PUBLIC "-//W3C//DTD SVG 1.1//EN" "http://www.w3.org/Graphics/SVG/1.1/DTD/svg11.dtd">
<svg version="1.1" xmlns="http://www.w3.org/2000/svg" xmlns:xlink="http://www.w3.org/1999/xlink" preserveAspectRatio="xMidYMid meet" viewBox="0 0 128 128" width="22" height="22"><defs><path d="M105.79 63.97C100.73 58.29 101.23 49.59 106.91 44.52C110.81 41.05 116.34 40.08 121.19 42.02C123.88 49.03 125.26 56.49 125.25 64C125.25 64.22 125.24 64.98 125.24 65.09C119.56 70.15 110.85 69.65 105.79 63.97Z" id="d43cy6ph8S"></path><path d="M105.79 63.97C100.73 58.29 101.23 49.59 106.91 44.52C110.81 41.05 116.34 40.08 121.19 42.02C123.88 49.03 125.26 56.49 125.25 64C125.25 64.22 125.24 64.98 125.24 65.09C119.56 70.15 110.85 69.65 105.79 63.97Z" id="a2g6g8gsey"></path><path d="M64 125.25C40.84 125.26 19.66 112.2 9.26 91.51C9.27 91.51 9.3 91.49 9.31 91.49C16.88 92.27 23.65 86.76 24.42 79.19C25.2 71.62 19.69 64.85 12.12 64.07C11.65 64.03 11.19 64 10.72 64C7.88 64 5.12 64.87 2.8 66.5C2.75 65.26 2.76 64.25 2.75 64C2.75 32.15 27.06 5.98 58.13 3.03C58.14 3.04 58.15 3.15 58.15 3.16C56.68 10.28 61.27 17.25 68.39 18.71C75.51 20.18 82.48 15.59 83.94 8.47C84.1 7.71 84.19 6.94 84.21 6.16C101.19 12.12 114.71 25.22 121.19 42.01C114.12 39.19 106.1 42.62 103.27 49.69C100.44 56.76 103.88 64.78 110.95 67.6C112.57 68.26 114.31 68.59 116.06 68.59C119.45 68.6 122.72 67.35 125.24 65.09C124.66 98.42 97.46 125.25 64 125.25Z" id="k1nOP9TYi"></path><path d="M64 125.25C40.84 125.26 19.66 112.2 9.26 91.51C9.27 91.51 9.3 91.49 9.31 91.49C16.88 92.27 23.65 86.76 24.42 79.19C25.2 71.62 19.69 64.85 12.12 64.07C11.65 64.03 11.19 64 10.72 64C7.88 64 5.12 64.87 2.8 66.5C2.75 65.26 2.76 64.25 2.75 64C2.75 32.15 27.06 5.98 58.13 3.03C58.14 3.04 58.15 3.15 58.15 3.16C56.68 10.28 61.27 17.25 68.39 18.71C75.51 20.18 82.48 15.59 83.94 8.47C84.1 7.71 84.19 6.94 84.21 6.16C101.19 12.12 114.71 25.22 121.19 42.01C114.12 39.19 106.1 42.62 103.27 49.69C100.44 56.76 103.88 64.78 110.95 67.6C112.57 68.26 114.31 68.59 116.06 68.59C119.45 68.6 122.72 67.35 125.24 65.09C124.66 98.42 97.46 125.25 64 125.25Z" id="a2XRyucw77"></path><path d="M57.88 5.44C57.9 4.67 57.99 3.91 58.15 3.16C58.15 3.15 58.13 3.04 58.13 3.03C61.03 2.76 63.41 2.78 64 2.75C70.88 2.74 77.71 3.9 84.21 6.16C84.01 13.43 77.95 19.16 70.68 18.96C63.42 18.76 57.68 12.71 57.88 5.44Z" id="a2HZtOqb3A"></path><path d="M57.88 5.44C57.9 4.67 57.99 3.91 58.15 3.16C58.15 3.15 58.13 3.04 58.13 3.03C61.03 2.76 63.41 2.78 64 2.75C70.88 2.74 77.71 3.9 84.21 6.16C84.01 13.43 77.95 19.16 70.68 18.96C63.42 18.76 57.68 12.71 57.88 5.44Z" id="b4FQPBo7O7"></path><path d="M10.72 91.56C10.25 91.56 9.78 91.54 9.31 91.49C9.3 91.49 9.27 91.51 9.26 91.51C5.35 83.73 3.14 75.2 2.8 66.5C5.12 64.87 7.88 64 10.72 64C18.33 64 24.5 70.17 24.5 77.78C24.5 85.39 18.33 91.56 10.72 91.56Z" id="axuFC6TKM"></path><path d="M10.72 91.56C10.25 91.56 9.78 91.54 9.31 91.49C9.3 91.49 9.27 91.51 9.26 91.51C5.35 83.73 3.14 75.2 2.8 66.5C5.12 64.87 7.88 64 10.72 64C18.33 64 24.5 70.17 24.5 77.78C24.5 85.39 18.33 91.56 10.72 91.56Z" id="c2fJ2imJJM"></path><path d="M84.83 102.89C84.83 106.28 87.57 109.02 90.95 109.02C94.33 109.02 97.08 106.28 97.08 102.89C97.08 99.51 94.33 96.77 90.95 96.77C87.57 96.77 84.83 99.51 84.83 102.89Z" id="aA5V8zmIl"></path><path d="M84.83 102.89C84.83 106.28 87.57 109.02 90.95 109.02C94.33 109.02 97.08 106.28 97.08 102.89C97.08 99.51 94.33 96.77 90.95 96.77C87.57 96.77 84.83 99.51 84.83 102.89Z" id="c9ThLrD3W8"></path><path d="M68.59 71.66C63.69 71.65 59.71 67.68 59.71 62.78C59.71 57.87 63.69 53.9 68.59 53.9C68.59 53.9 68.59 53.9 68.6 53.9C73.5 53.9 77.47 57.87 77.47 62.78C77.47 67.68 73.5 71.66 68.59 71.66Z" id="atV5z6VET"></path><path d="M68.59 71.66C63.69 71.65 59.71 67.68 59.71 62.78C59.71 57.87 63.69 53.9 68.59 53.9C68.59 53.9 68.59 53.9 68.6 53.9C73.5 53.9 77.47 57.87 77.47 62.78C77.47 67.68 73.5 71.66 68.59 71.66Z" id="b4nETAYByr"></path><path d="M32.46 34.91C32.46 38.29 35.2 41.03 38.58 41.03C41.97 41.03 44.71 38.29 44.71 34.91C44.71 31.53 41.97 28.78 38.58 28.78C35.2 28.78 32.46 31.53 32.46 34.91Z" id="b30ChzQv7k"></path><path d="M32.46 34.91C32.46 38.29 35.2 41.03 38.58 41.03C41.97 41.03 44.71 38.29 44.71 34.91C44.71 31.53 41.97 28.78 38.58 28.78C35.2 28.78 32.46 31.53 32.46 34.91Z" id="c2k3RPaPSM"></path><path d="M42.26 100.75C42.26 102.44 43.63 103.81 45.32 103.81C47.01 103.81 48.38 102.44 48.38 100.75C48.38 99.06 47.01 97.69 45.32 97.69C43.63 97.69 42.26 99.06 42.26 100.75Z" id="g2mQeIcr1"></path><path d="M42.26 100.75C42.26 102.44 43.63 103.81 45.32 103.81C47.01 103.81 48.38 102.44 48.38 100.75C48.38 99.06 47.01 97.69 45.32 97.69C43.63 97.69 42.26 99.06 42.26 100.75Z" id="ao1KRapsT"></path><path d="M58.14 3.16C58.14 3.15 58.13 3.04 58.13 3.03C27.06 5.98 2.75 32.15 2.75 64C2.75 65.25 2.8 66.25 2.8 66.5C4.99 64.96 7.58 64.09 10.25 64.01C10.25 34.83 30.66 10.42 57.97 4.25C58.01 3.89 58.07 3.52 58.14 3.16ZM10.72 91.56C10.25 91.56 9.77 91.54 9.31 91.49C9.3 91.49 9.27 91.51 9.26 91.51C19.66 112.2 40.84 125.26 64 125.25C65.25 125.25 66.5 125.21 67.73 125.13C45.97 123.8 26.56 110.99 16.76 91.51C16.69 91.36 16.51 91 16.23 90.41C12.92 91.1 11.08 91.49 10.72 91.56Z" id="p1P6Rwukv"></path><path d="M58.14 3.16C58.14 3.15 58.13 3.04 58.13 3.03C27.06 5.98 2.75 32.15 2.75 64C2.75 65.25 2.8 66.25 2.8 66.5C4.99 64.96 7.58 64.09 10.25 64.01C10.25 34.83 30.66 10.42 57.97 4.25C58.01 3.89 58.07 3.52 58.14 3.16ZM10.72 91.56C10.25 91.56 9.77 91.54 9.31 91.49C9.3 91.49 9.27 91.51 9.26 91.51C19.66 112.2 40.84 125.26 64 125.25C65.25 125.25 66.5 125.21 67.73 125.13C45.97 123.8 26.56 110.99 16.76 91.51C16.69 91.36 16.51 91 16.23 90.41C12.92 91.1 11.08 91.49 10.72 91.56Z" id="a8GnmGH1d"></path><path d="M2.8 66.5C3.14 75.2 5.34 83.73 9.26 91.51C9.27 91.51 9.3 91.49 9.3 91.49C9.77 91.54 10.24 91.56 10.71 91.56C12.61 91.57 14.49 91.17 16.23 90.41C12.64 82.93 10.63 74.79 10.3 66.5C10.29 66 10.26 64.26 10.25 64.01C7.58 64.09 4.99 64.96 2.8 66.5Z" id="b3ai3bkCZO"></path><path d="M2.8 66.5C3.14 75.2 5.34 83.73 9.26 91.51C9.27 91.51 9.3 91.49 9.3 91.49C9.77 91.54 10.24 91.56 10.71 91.56C12.61 91.57 14.49 91.17 16.23 90.41C12.64 82.93 10.63 74.79 10.3 66.5C10.29 66 10.26 64.26 10.25 64.01C7.58 64.09 4.99 64.96 2.8 66.5Z" id="a3d0J8Ew0q"></path></defs><g><g><g><use xlink:href="#d43cy6ph8S" opacity="1" fill="#7f8a98" fill-opacity="1"></use><g><use xlink:href="#d43cy6ph8S" opacity="1" fill-opacity="0" stroke="#000000" stroke-width="1" stroke-opacity="0"></use></g></g><g><use xlink:href="#a2g6g8gsey" opacity="1" fill="#000000" fill-opacity="0"></use><g><use xlink:href="#a2g6g8gsey" opacity="1" fill-opacity="0" stroke="#000000" stroke-width="1" stroke-opacity="0"></use></g></g><g><use xlink:href="#k1nOP9TYi" opacity="1" fill="#dde2f2" fill-opacity="1"></use><g><use xlink:href="#k1nOP9TYi" opacity="1" fill-opacity="0" stroke="#000000" stroke-width="1" stroke-opacity="0"></use></g></g><g><use xlink:href="#a2XRyucw77" opacity="1" fill="#000000" fill-opacity="0"></use><g><use xlink:href="#a2XRyucw77" opacity="1" fill-opacity="0" stroke="#000000" stroke-width="1" stroke-opacity="0"></use></g></g><g><use xlink:href="#a2HZtOqb3A" opacity="1" fill="#7f8a98" fill-opacity="1"></use><g><use xlink:href="#a2HZtOqb3A" opacity="1" fill-opacity="0" stroke="#000000" stroke-width="1" stroke-opacity="0"></use></g></g><g><use xlink:href="#b4FQPBo7O7" opacity="1" fill="#000000" fill-opacity="0"></use><g><use xlink:href="#b4FQPBo7O7" opacity="1" fill-opacity="0" stroke="#000000" stroke-width="1" stroke-opacity="0"></use></g></g><g><use xlink:href="#axuFC6TKM" opacity="1" fill="#c3cbdd" fill-opacity="1"></use><g><use xlink:href="#axuFC6TKM" opacity="1" fill-opacity="0" stroke="#000000" stroke-width="1" stroke-opacity="0"></use></g></g><g><use xlink:href="#c2fJ2imJJM" opacity="1" fill="#000000" fill-opacity="0"></use><g><use xlink:href="#c2fJ2imJJM" opacity="1" fill-opacity="0" stroke="#000000" stroke-width="1" stroke-opacity="0"></use></g></g><g><use xlink:href="#aA5V8zmIl" opacity="1" fill="#c3cbdd" fill-opacity="1"></use><g><use xlink:href="#aA5V8zmIl" opacity="1" fill-opacity="0" stroke="#000000" stroke-width="1" stroke-opacity="0"></use></g></g><g><use xlink:href="#c9ThLrD3W8" opacity="1" fill="#000000" fill-opacity="0"></use><g><use xlink:href="#c9ThLrD3W8" opacity="1" fill-opacity="0" stroke="#000000" stroke-width="1" stroke-opacity="0"></use></g></g><g><use xlink:href="#atV5z6VET" opacity="1" fill="#848b9b" fill-opacity="1"></use><g><use xlink:href="#atV5z6VET" opacity="1" fill-opacity="0" stroke="#000000" stroke-width="1" stroke-opacity="0"></use></g></g><g><use xlink:href="#b4nETAYByr" opacity="1" fill="#000000" fill-opacity="0"></use><g><use xlink:href="#b4nETAYByr" opacity="1" fill-opacity="0" stroke="#000000" stroke-width="1" stroke-opacity="0"></use></g></g><g><use xlink:href="#b30ChzQv7k" opacity="1" fill="#c3cbdd" fill-opacity="1"></use><g><use xlink:href="#b30ChzQv7k" opacity="1" fill-opacity="0" stroke="#000000" stroke-width="1" stroke-opacity="0"></use></g></g><g><use xlink:href="#c2k3RPaPSM" opacity="1" fill="#000000" fill-opacity="0"></use><g><use xlink:href="#c2k3RPaPSM" opacity="1" fill-opacity="0" stroke="#000000" stroke-width="1" stroke-opacity="0"></use></g></g><g><use xlink:href="#g2mQeIcr1" opacity="1" fill="#6d7486" fill-opacity="1"></use><g><use xlink:href="#g2mQeIcr1" opacity="1" fill-opacity="0" stroke="#000000" stroke-width="1" stroke-opacity="0"></use></g></g><g><use xlink:href="#ao1KRapsT" opacity="1" fill="#000000" fill-opacity="0"></use><g><use xlink:href="#ao1KRapsT" opacity="1" fill-opacity="0" stroke="#000000" stroke-width="1" stroke-opacity="0"></use></g></g><g><use xlink:href="#p1P6Rwukv" opacity="1" fill="#848b9b" fill-opacity="1"></use><g><use xlink:href="#p1P6Rwukv" opacity="1" fill-opacity="0" stroke="#000000" stroke-width="1" stroke-opacity="0"></use></g></g><g><use xlink:href="#a8GnmGH1d" opacity="1" fill="#000000" fill-opacity="0"></use><g><use xlink:href="#a8GnmGH1d" opacity="1" fill-opacity="0" stroke="#000000" stroke-width="1" stroke-opacity="0"></use></g></g><g><use xlink:href="#b3ai3bkCZO" opacity="1" fill="#5f6875" fill-opacity="1"></use><g><use xlink:href="#b3ai3bkCZO" opacity="1" fill-opacity="0" stroke="#000000" stroke-width="1" stroke-opacity="0"></use></g></g><g><use xlink:href="#a3d0J8Ew0q" opacity="1" fill="#000000" fill-opacity="0"></use><g><use xlink:href="#a3d0J8Ew0q" opacity="1" fill-opacity="0" stroke="#000000" stroke-width="1" stroke-opacity="0"></use></g></g></g></g></svg>