<?xml version="1.0" encoding="UTF-8" standalone="no"?>
<!DOCTYPE svg PUBLIC "-//W3C//DTD SVG 1.1//EN" "http://www.w3.org/Graphics/SVG/1.1/DTD/svg11.dtd">
<svg version="1.1" xmlns="http://www.w3.org/2000/svg" xmlns:xlink="http://www.w3.org/1999/xlink" preserveAspectRatio="xMidYMid meet" viewBox="0 0 128 128" width="22" height="22"><defs><path d="M0 64C0 99.35 28.66 128 64 128C99.35 128 128 99.35 128 64C128 28.66 99.35 0 64 0C28.66 0 0 28.66 0 64Z" id="deIvzuMIP"></path><path d="M0 64C0 99.35 28.66 128 64 128C99.35 128 128 99.35 128 64C128 28.66 99.35 0 64 0C28.66 0 0 28.66 0 64Z" id="c2zgRxfcl2"></path><path d="M64 0C28.65 0 0 28.65 0 64C0 99.35 28.65 128 64 128C70.68 128 77.13 126.98 83.18 125.08C57.21 116.93 38.35 92.67 38.35 64C38.35 35.34 57.21 11.07 83.18 2.93C77.13 1.02 70.68 0 64 0ZM122.04 91.02C122.04 91.02 122.03 91.02 122.03 91.02C117.09 89.02 113.6 84.18 113.6 78.52C113.6 71.08 119.64 65.04 127.09 65.04C127.39 65.04 127.69 65.05 127.99 65.07C127.99 65.07 127.99 65.07 127.99 65.07C127.84 74.33 125.72 83.11 122.04 91.02Z" id="a1CCjh44jI"></path><path d="M64 0C28.65 0 0 28.65 0 64C0 99.35 28.65 128 64 128C70.68 128 77.13 126.98 83.18 125.08C57.21 116.93 38.35 92.67 38.35 64C38.35 35.34 57.21 11.07 83.18 2.93C77.13 1.02 70.68 0 64 0ZM122.04 91.02C122.04 91.02 122.03 91.02 122.03 91.02C117.09 89.02 113.6 84.18 113.6 78.52C113.6 71.08 119.64 65.04 127.09 65.04C127.39 65.04 127.69 65.05 127.99 65.07C127.99 65.07 127.99 65.07 127.99 65.07C127.84 74.33 125.72 83.11 122.04 91.02Z" id="a4TkPPSRAx"></path><path d="M64 128C60.05 128 56.18 127.64 52.42 126.95C53.74 121.78 58.43 117.97 64 117.97C69.58 117.97 74.26 121.79 75.58 126.95C71.83 127.64 67.96 128 64 128Z" id="bjP8Ks0n2"></path><path d="M64 128C60.05 128 56.18 127.64 52.42 126.95C53.74 121.78 58.43 117.97 64 117.97C69.58 117.97 74.26 121.79 75.58 126.95C71.83 127.64 67.96 128 64 128Z" id="a1ZgGFd3Ds"></path><path d="M79.44 105.03C75.14 105.03 71.64 101.55 71.64 97.23C71.64 92.92 75.14 89.42 79.44 89.42C83.76 89.42 87.25 92.92 87.25 97.23C87.25 101.54 83.76 105.03 79.44 105.03Z" id="dpjxSQNa9"></path><path d="M79.44 105.03C75.14 105.03 71.64 101.55 71.64 97.23C71.64 92.92 75.14 89.42 79.44 89.42C83.76 89.42 87.25 92.92 87.25 97.23C87.25 101.54 83.76 105.03 79.44 105.03Z" id="a4auRhOy7k"></path><path d="M88.08 76.71C88.08 79.76 90.55 82.23 93.6 82.23C96.65 82.23 99.12 79.76 99.12 76.71C99.12 73.66 96.65 71.19 93.6 71.19C90.55 71.19 88.08 73.66 88.08 76.71Z" id="cfRluk4H5"></path><path d="M88.08 76.71C88.08 79.76 90.55 82.23 93.6 82.23C96.65 82.23 99.12 79.76 99.12 76.71C99.12 73.66 96.65 71.19 93.6 71.19C90.55 71.19 88.08 73.66 88.08 76.71Z" id="c16kuNLyg1"></path><path d="M66.86 47.17C66.86 55.37 73.51 62.02 81.71 62.02C89.91 62.02 96.56 55.37 96.56 47.17C96.56 38.97 89.91 32.32 81.71 32.32C73.51 32.32 66.86 38.97 66.86 47.17Z" id="b3Ww4ArBts"></path><path d="M66.86 47.17C66.86 55.37 73.51 62.02 81.71 62.02C89.91 62.02 96.56 55.37 96.56 47.17C96.56 38.97 89.91 32.32 81.71 32.32C73.51 32.32 66.86 38.97 66.86 47.17Z" id="b1djDG0tz"></path><path d="M29.81 76.59C29.81 81.31 33.64 85.14 38.35 85.14C43.08 85.14 46.91 81.31 46.91 76.59C46.91 71.87 43.08 68.04 38.35 68.04C33.64 68.04 29.81 71.87 29.81 76.59Z" id="a5jRawVfeL"></path><path d="M29.81 76.59C29.81 81.31 33.64 85.14 38.35 85.14C43.08 85.14 46.91 81.31 46.91 76.59C46.91 71.87 43.08 68.04 38.35 68.04C33.64 68.04 29.81 71.87 29.81 76.59Z" id="c5EOOZVwS2"></path><path d="M38.48 68.04C38.47 68.04 38.37 68.04 38.35 68.04C33.63 68.04 29.81 71.87 29.81 76.59C29.81 81.31 33.63 85.14 38.35 85.14C39.5 85.14 40.64 84.91 41.7 84.46C39.94 79.26 38.84 73.75 38.48 68.04ZM22.49 59.96C19.61 59.96 17.27 57.63 17.27 54.74C17.27 51.86 19.61 49.52 22.49 49.52C25.37 49.52 27.71 51.86 27.71 54.74C27.71 57.62 25.38 59.96 22.49 59.96ZM20.12 35.21C16.03 35.22 12 34.24 8.36 32.35C8.36 32.35 8.36 32.35 8.36 32.35C16.29 18.45 29.27 7.81 44.81 2.93C45.39 5.07 45.7 7.32 45.7 9.64C45.7 23.76 34.24 35.21 20.12 35.21Z" id="a66F9K2lA"></path><path d="M38.48 68.04C38.47 68.04 38.37 68.04 38.35 68.04C33.63 68.04 29.81 71.87 29.81 76.59C29.81 81.31 33.63 85.14 38.35 85.14C39.5 85.14 40.64 84.91 41.7 84.46C39.94 79.26 38.84 73.75 38.48 68.04ZM22.49 59.96C19.61 59.96 17.27 57.63 17.27 54.74C17.27 51.86 19.61 49.52 22.49 49.52C25.37 49.52 27.71 51.86 27.71 54.74C27.71 57.62 25.38 59.96 22.49 59.96ZM20.12 35.21C16.03 35.22 12 34.24 8.36 32.35C8.36 32.35 8.36 32.35 8.36 32.35C16.29 18.45 29.27 7.81 44.81 2.93C45.39 5.07 45.7 7.32 45.7 9.64C45.7 23.76 34.24 35.21 20.12 35.21Z" id="akmhqNXGz"></path></defs><g><g><g><use xlink:href="#deIvzuMIP" opacity="1" fill="#fef0ae" fill-opacity="1"></use><g><use xlink:href="#deIvzuMIP" opacity="1" fill-opacity="0" stroke="#000000" stroke-width="1" stroke-opacity="0"></use></g></g><g><use xlink:href="#c2zgRxfcl2" opacity="1" fill="#000000" fill-opacity="0"></use><g><use xlink:href="#c2zgRxfcl2" opacity="1" fill-opacity="0" stroke="#000000" stroke-width="1" stroke-opacity="0"></use></g></g><g><use xlink:href="#a1CCjh44jI" opacity="1" fill="#fee97d" fill-opacity="1"></use><g><use xlink:href="#a1CCjh44jI" opacity="1" fill-opacity="0" stroke="#000000" stroke-width="1" stroke-opacity="0"></use></g></g><g><use xlink:href="#a4TkPPSRAx" opacity="1" fill="#000000" fill-opacity="0"></use><g><use xlink:href="#a4TkPPSRAx" opacity="1" fill-opacity="0" stroke="#000000" stroke-width="1" stroke-opacity="0"></use></g></g><g><use xlink:href="#bjP8Ks0n2" opacity="1" fill="#fedf30" fill-opacity="1"></use><g><use xlink:href="#bjP8Ks0n2" opacity="1" fill-opacity="0" stroke="#000000" stroke-width="1" stroke-opacity="0"></use></g></g><g><use xlink:href="#a1ZgGFd3Ds" opacity="1" fill="#000000" fill-opacity="0"></use><g><use xlink:href="#a1ZgGFd3Ds" opacity="1" fill-opacity="0" stroke="#000000" stroke-width="1" stroke-opacity="0"></use></g></g><g><use xlink:href="#dpjxSQNa9" opacity="1" fill="#fee97d" fill-opacity="1"></use><g><use xlink:href="#dpjxSQNa9" opacity="1" fill-opacity="0" stroke="#000000" stroke-width="1" stroke-opacity="0"></use></g></g><g><use xlink:href="#a4auRhOy7k" opacity="1" fill="#000000" fill-opacity="0"></use><g><use xlink:href="#a4auRhOy7k" opacity="1" fill-opacity="0" stroke="#000000" stroke-width="1" stroke-opacity="0"></use></g></g><g><use xlink:href="#cfRluk4H5" opacity="1" fill="#fee97d" fill-opacity="1"></use><g><use xlink:href="#cfRluk4H5" opacity="1" fill-opacity="0" stroke="#000000" stroke-width="1" stroke-opacity="0"></use></g></g><g><use xlink:href="#c16kuNLyg1" opacity="1" fill="#000000" fill-opacity="0"></use><g><use xlink:href="#c16kuNLyg1" opacity="1" fill-opacity="0" stroke="#000000" stroke-width="1" stroke-opacity="0"></use></g></g><g><use xlink:href="#b3Ww4ArBts" opacity="1" fill="#fee97d" fill-opacity="1"></use><g><use xlink:href="#b3Ww4ArBts" opacity="1" fill-opacity="0" stroke="#000000" stroke-width="1" stroke-opacity="0"></use></g></g><g><use xlink:href="#b1djDG0tz" opacity="1" fill="#000000" fill-opacity="0"></use><g><use xlink:href="#b1djDG0tz" opacity="1" fill-opacity="0" stroke="#000000" stroke-width="1" stroke-opacity="0"></use></g></g><g><use xlink:href="#a5jRawVfeL" opacity="1" fill="#fee45a" fill-opacity="1"></use><g><use xlink:href="#a5jRawVfeL" opacity="1" fill-opacity="0" stroke="#000000" stroke-width="1" stroke-opacity="0"></use></g></g><g><use xlink:href="#c5EOOZVwS2" opacity="1" fill="#000000" fill-opacity="0"></use><g><use xlink:href="#c5EOOZVwS2" opacity="1" fill-opacity="0" stroke="#000000" stroke-width="1" stroke-opacity="0"></use></g></g><g><use xlink:href="#a66F9K2lA" opacity="1" fill="#fedf30" fill-opacity="1"></use><g><use xlink:href="#a66F9K2lA" opacity="1" fill-opacity="0" stroke="#000000" stroke-width="1" stroke-opacity="0"></use></g></g><g><use xlink:href="#akmhqNXGz" opacity="1" fill="#000000" fill-opacity="0"></use><g><use xlink:href="#akmhqNXGz" opacity="1" fill-opacity="0" stroke="#000000" stroke-width="1" stroke-opacity="0"></use></g></g></g></g></svg>