<?xml version="1.0" encoding="UTF-8" standalone="no"?>
<!DOCTYPE svg PUBLIC "-//W3C//DTD SVG 1.1//EN" "http://www.w3.org/Graphics/SVG/1.1/DTD/svg11.dtd">
<svg version="1.1" xmlns="http://www.w3.org/2000/svg" xmlns:xlink="http://www.w3.org/1999/xlink" preserveAspectRatio="xMidYMid meet" viewBox="0 0 128 128" width="25" height="25"><defs><path d="M111.79 36.27C109.13 31.66 114.32 20.96 110.59 17.23C106.85 13.49 96.15 18.68 91.55 16.02C87.01 13.39 86.18 1.51 80.99 0.13C75.98 -1.21 69.34 8.62 63.91 8.62C58.48 8.62 51.83 -1.21 46.82 0.13C41.64 1.51 40.8 13.39 36.27 16.02C31.66 18.68 20.96 13.49 17.23 17.23C13.49 20.96 18.68 31.66 16.02 36.27C13.39 40.8 1.51 41.64 0.13 46.82C-1.21 51.83 8.62 58.48 8.62 63.91C8.62 69.34 -1.21 75.98 0.13 80.99C1.51 86.18 13.39 87.01 16.02 91.55C18.68 96.15 13.49 106.85 17.23 110.59C20.96 114.32 31.66 109.13 36.27 111.79C40.8 114.42 41.64 126.3 46.82 127.69C51.83 129.03 58.48 119.19 63.91 119.19C69.34 119.19 75.98 129.02 80.99 127.69C86.18 126.3 87.01 114.42 91.55 111.79C96.15 109.13 106.85 114.32 110.59 110.59C114.32 106.85 109.13 96.15 111.79 91.55C114.42 87.01 126.3 86.18 127.69 80.99C129.03 75.98 119.19 69.34 119.19 63.91C119.19 58.48 129.02 51.83 127.69 46.82C126.3 41.64 114.42 40.8 111.79 36.27Z" id="e36PmqUQba"></path><path d="M111.79 36.27C109.13 31.66 114.32 20.96 110.59 17.23C106.85 13.49 96.15 18.68 91.55 16.02C87.01 13.39 86.18 1.51 80.99 0.13C75.98 -1.21 69.34 8.62 63.91 8.62C58.48 8.62 51.83 -1.21 46.82 0.13C41.64 1.51 40.8 13.39 36.27 16.02C31.66 18.68 20.96 13.49 17.23 17.23C13.49 20.96 18.68 31.66 16.02 36.27C13.39 40.8 1.51 41.64 0.13 46.82C-1.21 51.83 8.62 58.48 8.62 63.91C8.62 69.34 -1.21 75.98 0.13 80.99C1.51 86.18 13.39 87.01 16.02 91.55C18.68 96.15 13.49 106.85 17.23 110.59C20.96 114.32 31.66 109.13 36.27 111.79C40.8 114.42 41.64 126.3 46.82 127.69C51.83 129.03 58.48 119.19 63.91 119.19C69.34 119.19 75.98 129.02 80.99 127.69C86.18 126.3 87.01 114.42 91.55 111.79C96.15 109.13 106.85 114.32 110.59 110.59C114.32 106.85 109.13 96.15 111.79 91.55C114.42 87.01 126.3 86.18 127.69 80.99C129.03 75.98 119.19 69.34 119.19 63.91C119.19 58.48 129.02 51.83 127.69 46.82C126.3 41.64 114.42 40.8 111.79 36.27Z" id="a78bh9BrB"></path><path d="M63.91 106.58C40.34 106.58 21.23 87.47 21.23 63.91C21.23 40.34 40.34 21.23 63.91 21.23C65.92 21.23 67.9 21.37 69.84 21.64C90.6 24.53 106.58 42.35 106.58 63.91C106.58 85.46 90.6 103.28 69.84 106.17C67.9 106.45 65.92 106.58 63.91 106.58Z" id="aepbrBVdO"></path><path d="M63.91 106.58C40.34 106.58 21.23 87.47 21.23 63.91C21.23 40.34 40.34 21.23 63.91 21.23C65.92 21.23 67.9 21.37 69.84 21.64C90.6 24.53 106.58 42.35 106.58 63.91C106.58 85.46 90.6 103.28 69.84 106.17C67.9 106.45 65.92 106.58 63.91 106.58Z" id="bZJwE0qdi"></path><path d="M33.09 63.91C33.09 42.35 49.08 24.53 69.84 21.64C90.6 24.53 106.58 42.35 106.58 63.91C106.58 85.46 90.6 103.28 69.84 106.17C49.08 103.28 33.09 85.46 33.09 63.91Z" id="bFFu4SI4k"></path><path d="M33.09 63.91C33.09 42.35 49.08 24.53 69.84 21.64C90.6 24.53 106.58 42.35 106.58 63.91C106.58 85.46 90.6 103.28 69.84 106.17C49.08 103.28 33.09 85.46 33.09 63.91Z" id="dF8r6Zvsd"></path><path d="M37.53 53.95C41.9 49.57 49.03 49.57 53.4 53.95C54.17 54.71 54.17 55.95 53.4 56.72C52.64 57.48 51.4 57.48 50.63 56.72C47.78 53.86 43.15 53.86 40.29 56.72C39.93 57.08 39.43 57.29 38.91 57.29C38.39 57.29 37.9 57.08 37.53 56.72C36.76 55.95 36.76 54.71 37.53 53.95ZM77.18 56.72C76.41 57.48 75.18 57.48 74.41 56.72C73.65 55.95 73.65 54.71 74.41 53.95C78.79 49.57 85.91 49.57 90.28 53.95C91.05 54.71 91.05 55.95 90.28 56.72C89.9 57.1 89.4 57.29 88.9 57.29C88.38 57.29 87.88 57.08 87.52 56.72C84.67 53.86 80.03 53.86 77.18 56.72ZM52.66 70.11C53.43 69.34 54.66 69.34 55.43 70.11C57.69 72.37 60.7 73.62 63.91 73.62C67.11 73.62 70.12 72.37 72.38 70.11C73.15 69.34 74.39 69.34 75.15 70.11C75.92 70.87 75.92 72.11 75.15 72.87C72.17 75.87 68.13 77.54 63.91 77.53C59.69 77.54 55.64 75.87 52.66 72.87C51.9 72.11 51.9 70.87 52.66 70.11Z" id="b22xG3d2Vd"></path><path d="M37.53 53.95C41.9 49.57 49.03 49.57 53.4 53.95C54.17 54.71 54.17 55.95 53.4 56.72C52.64 57.48 51.4 57.48 50.63 56.72C47.78 53.86 43.15 53.86 40.29 56.72C39.93 57.08 39.43 57.29 38.91 57.29C38.39 57.29 37.9 57.08 37.53 56.72C36.76 55.95 36.76 54.71 37.53 53.95ZM77.18 56.72C76.41 57.48 75.18 57.48 74.41 56.72C73.65 55.95 73.65 54.71 74.41 53.95C78.79 49.57 85.91 49.57 90.28 53.95C91.05 54.71 91.05 55.95 90.28 56.72C89.9 57.1 89.4 57.29 88.9 57.29C88.38 57.29 87.88 57.08 87.52 56.72C84.67 53.86 80.03 53.86 77.18 56.72ZM52.66 70.11C53.43 69.34 54.66 69.34 55.43 70.11C57.69 72.37 60.7 73.62 63.91 73.62C67.11 73.62 70.12 72.37 72.38 70.11C73.15 69.34 74.39 69.34 75.15 70.11C75.92 70.87 75.92 72.11 75.15 72.87C72.17 75.87 68.13 77.54 63.91 77.53C59.69 77.54 55.64 75.87 52.66 72.87C51.9 72.11 51.9 70.87 52.66 70.11Z" id="b1aaGV31I6"></path><path d="M111.79 36.27C109.13 31.66 114.32 20.96 110.59 17.23C106.85 13.49 96.15 18.68 91.55 16.02C87.01 13.39 86.18 1.51 80.99 0.13C75.98 -1.21 69.34 8.62 63.91 8.62C58.48 8.62 51.83 -1.21 46.82 0.13C41.64 1.51 40.8 13.39 36.27 16.02C31.66 18.68 20.96 13.49 17.23 17.23C13.49 20.96 18.68 31.66 16.02 36.27C13.39 40.8 1.51 41.64 0.13 46.82C-1.21 51.83 8.62 58.48 8.62 63.91C8.62 69.34 -1.21 75.98 0.13 80.99C1.51 86.18 13.39 87.01 16.02 91.55C18.68 96.15 13.49 106.85 17.23 110.59C20.96 114.32 31.66 109.13 36.27 111.79C40.8 114.42 41.64 126.3 46.82 127.69C51.83 129.03 58.48 119.19 63.91 119.19C69.34 119.19 75.98 129.02 80.99 127.69C86.18 126.3 87.01 114.42 91.55 111.79C96.15 109.13 106.85 114.32 110.59 110.59C114.32 106.85 109.13 96.15 111.79 91.55C114.42 87.01 126.3 86.18 127.69 80.99C129.03 75.98 119.19 69.34 119.19 63.91C119.19 58.48 129.02 51.83 127.69 46.82C126.3 41.64 114.42 40.8 111.79 36.27Z" id="fSLNzcDSw"></path><path d="M111.79 36.27C109.13 31.66 114.32 20.96 110.59 17.23C106.85 13.49 96.15 18.68 91.55 16.02C87.01 13.39 86.18 1.51 80.99 0.13C75.98 -1.21 69.34 8.62 63.91 8.62C58.48 8.62 51.83 -1.21 46.82 0.13C41.64 1.51 40.8 13.39 36.27 16.02C31.66 18.68 20.96 13.49 17.23 17.23C13.49 20.96 18.68 31.66 16.02 36.27C13.39 40.8 1.51 41.64 0.13 46.82C-1.21 51.83 8.62 58.48 8.62 63.91C8.62 69.34 -1.21 75.98 0.13 80.99C1.51 86.18 13.39 87.01 16.02 91.55C18.68 96.15 13.49 106.85 17.23 110.59C20.96 114.32 31.66 109.13 36.27 111.79C40.8 114.42 41.64 126.3 46.82 127.69C51.83 129.03 58.48 119.19 63.91 119.19C69.34 119.19 75.98 129.02 80.99 127.69C86.18 126.3 87.01 114.42 91.55 111.79C96.15 109.13 106.85 114.32 110.59 110.59C114.32 106.85 109.13 96.15 111.79 91.55C114.42 87.01 126.3 86.18 127.69 80.99C129.03 75.98 119.19 69.34 119.19 63.91C119.19 58.48 129.02 51.83 127.69 46.82C126.3 41.64 114.42 40.8 111.79 36.27Z" id="a1lxf4nxso"></path><path d="M63.91 106.58C40.34 106.58 21.23 87.47 21.23 63.91C21.23 40.34 40.34 21.23 63.91 21.23C65.92 21.23 67.9 21.37 69.84 21.64C90.6 24.53 106.58 42.35 106.58 63.91C106.58 85.46 90.6 103.28 69.84 106.17C67.9 106.45 65.92 106.58 63.91 106.58Z" id="g13rcOxCm"></path><path d="M63.91 106.58C40.34 106.58 21.23 87.47 21.23 63.91C21.23 40.34 40.34 21.23 63.91 21.23C65.92 21.23 67.9 21.37 69.84 21.64C90.6 24.53 106.58 42.35 106.58 63.91C106.58 85.46 90.6 103.28 69.84 106.17C67.9 106.45 65.92 106.58 63.91 106.58Z" id="d2nms50if0"></path><path d="M33.09 63.91C33.09 42.35 49.08 24.53 69.84 21.64C90.6 24.53 106.58 42.35 106.58 63.91C106.58 85.46 90.6 103.28 69.84 106.17C49.08 103.28 33.09 85.46 33.09 63.91Z" id="a3DZtbwQRZ"></path><path d="M33.09 63.91C33.09 42.35 49.08 24.53 69.84 21.64C90.6 24.53 106.58 42.35 106.58 63.91C106.58 85.46 90.6 103.28 69.84 106.17C49.08 103.28 33.09 85.46 33.09 63.91Z" id="f3xSOe2SkD"></path><path d="M37.53 53.95C41.9 49.57 49.03 49.57 53.4 53.95C54.17 54.71 54.17 55.95 53.4 56.72C52.64 57.48 51.4 57.48 50.63 56.72C47.78 53.86 43.15 53.86 40.29 56.72C39.93 57.08 39.43 57.29 38.91 57.29C38.39 57.29 37.9 57.08 37.53 56.72C36.76 55.95 36.76 54.71 37.53 53.95ZM77.18 56.72C76.41 57.48 75.18 57.48 74.41 56.72C73.65 55.95 73.65 54.71 74.41 53.95C78.79 49.57 85.91 49.57 90.28 53.95C91.05 54.71 91.05 55.95 90.28 56.72C89.9 57.1 89.4 57.29 88.9 57.29C88.38 57.29 87.88 57.08 87.52 56.72C84.67 53.86 80.03 53.86 77.18 56.72ZM52.66 70.11C53.43 69.34 54.66 69.34 55.43 70.11C57.69 72.37 60.7 73.62 63.91 73.62C67.11 73.62 70.12 72.37 72.38 70.11C73.15 69.34 74.39 69.34 75.15 70.11C75.92 70.87 75.92 72.11 75.15 72.87C72.17 75.87 68.13 77.54 63.91 77.53C59.69 77.54 55.64 75.87 52.66 72.87C51.9 72.11 51.9 70.87 52.66 70.11Z" id="c117Ch6K4u"></path><path d="M37.53 53.95C41.9 49.57 49.03 49.57 53.4 53.95C54.17 54.71 54.17 55.95 53.4 56.72C52.64 57.48 51.4 57.48 50.63 56.72C47.78 53.86 43.15 53.86 40.29 56.72C39.93 57.08 39.43 57.29 38.91 57.29C38.39 57.29 37.9 57.08 37.53 56.72C36.76 55.95 36.76 54.71 37.53 53.95ZM77.18 56.72C76.41 57.48 75.18 57.48 74.41 56.72C73.65 55.95 73.65 54.71 74.41 53.95C78.79 49.57 85.91 49.57 90.28 53.95C91.05 54.71 91.05 55.95 90.28 56.72C89.9 57.1 89.4 57.29 88.9 57.29C88.38 57.29 87.88 57.08 87.52 56.72C84.67 53.86 80.03 53.86 77.18 56.72ZM52.66 70.11C53.43 69.34 54.66 69.34 55.43 70.11C57.69 72.37 60.7 73.62 63.91 73.62C67.11 73.62 70.12 72.37 72.38 70.11C73.15 69.34 74.39 69.34 75.15 70.11C75.92 70.87 75.92 72.11 75.15 72.87C72.17 75.87 68.13 77.54 63.91 77.53C59.69 77.54 55.64 75.87 52.66 72.87C51.9 72.11 51.9 70.87 52.66 70.11Z" id="d1imTjhIEa"></path></defs><g><g><g><use xlink:href="#e36PmqUQba" opacity="1" fill="#ffee8c" fill-opacity="1"></use><g><use xlink:href="#e36PmqUQba" opacity="1" fill-opacity="0" stroke="#000000" stroke-width="1" stroke-opacity="0"></use></g></g><g><use xlink:href="#a78bh9BrB" opacity="1" fill="#000000" fill-opacity="0"></use><g><use xlink:href="#a78bh9BrB" opacity="1" fill-opacity="0" stroke="#000000" stroke-width="1" stroke-opacity="0"></use></g></g><g><use xlink:href="#aepbrBVdO" opacity="1" fill="#f28f44" fill-opacity="1"></use><g><use xlink:href="#aepbrBVdO" opacity="1" fill-opacity="0" stroke="#000000" stroke-width="1" stroke-opacity="0"></use></g></g><g><use xlink:href="#bZJwE0qdi" opacity="1" fill="#000000" fill-opacity="0"></use><g><use xlink:href="#bZJwE0qdi" opacity="1" fill-opacity="0" stroke="#000000" stroke-width="1" stroke-opacity="0"></use></g></g><g><use xlink:href="#bFFu4SI4k" opacity="1" fill="#ffd073" fill-opacity="1"></use><g><use xlink:href="#bFFu4SI4k" opacity="1" fill-opacity="0" stroke="#000000" stroke-width="1" stroke-opacity="0"></use></g></g><g><use xlink:href="#dF8r6Zvsd" opacity="1" fill="#000000" fill-opacity="0"></use><g><use xlink:href="#dF8r6Zvsd" opacity="1" fill-opacity="0" stroke="#000000" stroke-width="1" stroke-opacity="0"></use></g></g><g><use xlink:href="#b22xG3d2Vd" opacity="1" fill="#cc9236" fill-opacity="1"></use><g><use xlink:href="#b22xG3d2Vd" opacity="1" fill-opacity="0" stroke="#000000" stroke-width="1" stroke-opacity="0"></use></g></g><g><use xlink:href="#b1aaGV31I6" opacity="1" fill="#000000" fill-opacity="0"></use><g><use xlink:href="#b1aaGV31I6" opacity="1" fill-opacity="0" stroke="#000000" stroke-width="1" stroke-opacity="0"></use></g></g><g><use xlink:href="#fSLNzcDSw" opacity="1" fill="#e8e8e8" fill-opacity="1"></use><g><use xlink:href="#fSLNzcDSw" opacity="1" fill-opacity="0" stroke="#000000" stroke-width="1" stroke-opacity="0"></use></g></g><g><use xlink:href="#a1lxf4nxso" opacity="1" fill="#000000" fill-opacity="0"></use><g><use xlink:href="#a1lxf4nxso" opacity="1" fill-opacity="0" stroke="#000000" stroke-width="1" stroke-opacity="0"></use></g></g><g><use xlink:href="#g13rcOxCm" opacity="1" fill="#a4a4a4" fill-opacity="1"></use><g><use xlink:href="#g13rcOxCm" opacity="1" fill-opacity="0" stroke="#000000" stroke-width="1" stroke-opacity="0"></use></g></g><g><use xlink:href="#d2nms50if0" opacity="1" fill="#000000" fill-opacity="0"></use><g><use xlink:href="#d2nms50if0" opacity="1" fill-opacity="0" stroke="#000000" stroke-width="1" stroke-opacity="0"></use></g></g><g><use xlink:href="#a3DZtbwQRZ" opacity="1" fill="#d4d4d4" fill-opacity="1"></use><g><use xlink:href="#a3DZtbwQRZ" opacity="1" fill-opacity="0" stroke="#000000" stroke-width="1" stroke-opacity="0"></use></g></g><g><use xlink:href="#f3xSOe2SkD" opacity="1" fill="#000000" fill-opacity="0"></use><g><use xlink:href="#f3xSOe2SkD" opacity="1" fill-opacity="0" stroke="#000000" stroke-width="1" stroke-opacity="0"></use></g></g><g><use xlink:href="#c117Ch6K4u" opacity="1" fill="#999999" fill-opacity="1"></use><g><use xlink:href="#c117Ch6K4u" opacity="1" fill-opacity="0" stroke="#000000" stroke-width="1" stroke-opacity="0"></use></g></g><g><use xlink:href="#d1imTjhIEa" opacity="1" fill="#000000" fill-opacity="0"></use><g><use xlink:href="#d1imTjhIEa" opacity="1" fill-opacity="0" stroke="#000000" stroke-width="1" stroke-opacity="0"></use></g></g></g></g></svg>