<?xml version="1.0" encoding="UTF-8" standalone="no"?>
<!DOCTYPE svg PUBLIC "-//W3C//DTD SVG 1.1//EN" "http://www.w3.org/Graphics/SVG/1.1/DTD/svg11.dtd">
<svg version="1.1" xmlns="http://www.w3.org/2000/svg" xmlns:xlink="http://www.w3.org/1999/xlink" preserveAspectRatio="xMidYMid meet" viewBox="0 0 512 512" width="128" height="128"><defs><path d="M500.96 260.37C478.24 280.61 443.41 278.61 423.17 255.89C402.92 233.16 404.93 198.34 427.65 178.09C443.24 164.2 465.35 160.32 484.74 168.06C495.53 196.12 501.04 225.94 501 256C500.99 256.87 500.96 259.93 500.96 260.37Z" id="a1sQDhl1PQ"></path><path d="M500.96 260.37C498.63 393.66 389.85 501 256 501C163.37 501.02 78.65 448.8 37.05 366.04C37.07 366.03 37.2 365.97 37.22 365.96C67.51 369.07 94.58 347.04 97.68 316.75C100.79 286.47 78.76 259.4 48.47 256.29C46.61 256.1 44.74 256 42.86 256C31.53 255.98 20.48 259.47 11.21 265.98C11.01 261.02 11.03 257 11.01 256C11.01 128.6 108.24 23.93 232.53 12.1C232.54 12.15 232.58 12.58 232.58 12.63C226.71 41.12 245.06 68.98 273.55 74.84C302.05 80.71 329.9 62.36 335.77 33.87C336.39 30.83 336.75 27.74 336.83 24.64C404.76 48.47 458.83 100.89 484.74 168.05C456.47 156.74 424.39 170.48 413.08 198.75C401.76 227.02 415.51 259.1 443.78 270.41C450.29 273.02 457.24 274.36 464.25 274.36C477.79 274.39 490.87 269.4 500.96 260.37Z" id="j2t7V1RJLs"></path><path d="M282.73 75.85C253.66 75.05 230.73 50.83 231.53 21.76C231.61 18.69 231.97 15.64 232.58 12.64C232.58 12.59 232.53 12.16 232.53 12.11C244.1 11.02 253.65 11.11 256 11C283.52 10.97 310.85 15.59 336.83 24.65C336.03 53.73 311.81 76.65 282.73 75.85Z" id="anjMjZByE"></path><path d="M97.99 311.12C98 341.56 73.32 366.25 42.87 366.25C40.99 366.25 39.1 366.15 37.22 365.96C37.2 365.97 37.07 366.03 37.05 366.04C21.38 334.92 12.57 300.8 11.21 265.98C20.48 259.47 31.53 255.98 42.86 256C73.3 256 97.99 280.67 97.99 311.12Z" id="alYmN7Cqt"></path><path d="M363.8 387.07C350.27 387.07 339.3 398.04 339.3 411.57C339.3 425.1 350.27 436.07 363.8 436.07C377.33 436.07 388.3 425.1 388.3 411.57C388.3 398.04 377.33 387.07 363.8 387.07Z" id="aLSYYDv9L"></path><path d="M309.89 251.11C309.88 270.73 293.98 286.63 274.36 286.62C254.75 286.61 238.85 270.71 238.85 251.1C238.85 231.49 254.75 215.58 274.36 215.58C274.37 215.58 274.37 215.58 274.38 215.58C294 215.59 309.9 231.49 309.89 251.11Z" id="i7g9cjX0Qp"></path><path d="M154.33 115.13C140.8 115.13 129.83 126.1 129.83 139.63C129.83 153.16 140.8 164.13 154.33 164.13C167.86 164.13 178.83 153.16 178.83 139.63C178.83 126.1 167.86 115.13 154.33 115.13Z" id="b25YGqdE3P"></path><path d="M181.28 390.75C174.51 390.75 169.03 396.23 169.03 403C169.03 409.77 174.51 415.25 181.28 415.25C188.05 415.25 193.53 409.77 193.53 403C193.53 396.23 188.05 390.75 181.28 390.75Z" id="b3f1Ig9AjY"></path><path d="M231.88 17.01C232.05 15.54 232.28 14.08 232.57 12.64C232.57 12.59 232.53 12.16 232.52 12.11C108.24 23.93 11 128.6 11 256C11 261 11.18 264.98 11.2 265.98C19.95 259.83 30.31 256.37 41 256.04C41 139.3 122.62 41.66 231.88 17.01ZM64.91 361.65C51.68 364.41 44.33 365.94 42.86 366.25C40.98 366.25 39.09 366.15 37.22 365.96C37.2 365.97 37.07 366.03 37.05 366.04C78.65 448.8 163.37 501.02 256 501C261.01 501 265.99 500.83 270.92 500.53C183.87 495.18 106.23 443.96 67.05 366.04C66.76 365.45 66.05 363.99 64.91 361.65Z" id="bulIMTOGS"></path><path d="M41 256.03C30.31 256.37 19.95 259.83 11.2 265.98C12.56 300.8 21.37 334.92 37.04 366.04C37.06 366.03 37.19 365.97 37.21 365.96C39.08 366.15 40.97 366.25 42.85 366.25C50.44 366.26 57.95 364.69 64.9 361.65C50.57 331.71 42.5 299.15 41.2 265.98C41.16 263.99 41.02 257.03 41 256.03Z" id="c1J5UK5FRM"></path></defs><g><g><g><use xlink:href="#a1sQDhl1PQ" opacity="1" fill="#7f8a98" fill-opacity="1"></use><g><use xlink:href="#a1sQDhl1PQ" opacity="1" fill-opacity="0" stroke="#000000" stroke-width="1" stroke-opacity="0"></use></g></g><g><use xlink:href="#j2t7V1RJLs" opacity="1" fill="#dde2f2" fill-opacity="1"></use><g><use xlink:href="#j2t7V1RJLs" opacity="1" fill-opacity="0" stroke="#000000" stroke-width="1" stroke-opacity="0"></use></g></g><g><use xlink:href="#anjMjZByE" opacity="1" fill="#7f8a98" fill-opacity="1"></use><g><use xlink:href="#anjMjZByE" opacity="1" fill-opacity="0" stroke="#000000" stroke-width="1" stroke-opacity="0"></use></g></g><g><use xlink:href="#alYmN7Cqt" opacity="1" fill="#c3cbdd" fill-opacity="1"></use><g><use xlink:href="#alYmN7Cqt" opacity="1" fill-opacity="0" stroke="#000000" stroke-width="1" stroke-opacity="0"></use></g></g><g><use xlink:href="#aLSYYDv9L" opacity="1" fill="#c3cbdd" fill-opacity="1"></use><g><use xlink:href="#aLSYYDv9L" opacity="1" fill-opacity="0" stroke="#000000" stroke-width="1" stroke-opacity="0"></use></g></g><g><use xlink:href="#i7g9cjX0Qp" opacity="1" fill="#848b9b" fill-opacity="1"></use><g><use xlink:href="#i7g9cjX0Qp" opacity="1" fill-opacity="0" stroke="#000000" stroke-width="1" stroke-opacity="0"></use></g></g><g><use xlink:href="#b25YGqdE3P" opacity="1" fill="#c3cbdd" fill-opacity="1"></use><g><use xlink:href="#b25YGqdE3P" opacity="1" fill-opacity="0" stroke="#000000" stroke-width="1" stroke-opacity="0"></use></g></g><g><use xlink:href="#b3f1Ig9AjY" opacity="1" fill="#6d7486" fill-opacity="1"></use><g><use xlink:href="#b3f1Ig9AjY" opacity="1" fill-opacity="0" stroke="#000000" stroke-width="1" stroke-opacity="0"></use></g></g><g><use xlink:href="#bulIMTOGS" opacity="1" fill="#848b9b" fill-opacity="1"></use><g><use xlink:href="#bulIMTOGS" opacity="1" fill-opacity="0" stroke="#000000" stroke-width="1" stroke-opacity="0"></use></g></g><g><use xlink:href="#c1J5UK5FRM" opacity="1" fill="#5f6875" fill-opacity="1"></use><g><use xlink:href="#c1J5UK5FRM" opacity="1" fill-opacity="0" stroke="#000000" stroke-width="1" stroke-opacity="0"></use></g></g></g></g></svg>