<?xml version="1.0" encoding="UTF-8" standalone="no"?>
<!DOCTYPE svg PUBLIC "-//W3C//DTD SVG 1.1//EN" "http://www.w3.org/Graphics/SVG/1.1/DTD/svg11.dtd">
<svg version="1.1" xmlns="http://www.w3.org/2000/svg" xmlns:xlink="http://www.w3.org/1999/xlink" preserveAspectRatio="xMidYMid meet" viewBox="0 0 512 512" width="128" height="128"><defs><path d="M256 0C114.62 0 0 114.62 0 256C0 397.38 114.62 512 256 512C397.38 512 512 397.38 512 256C512 114.62 397.38 0 256 0Z" id="c1J5zuqqs"></path><path d="M332.73 11.7C308.51 4.1 282.73 0 256 0C114.61 0 0 114.61 0 256C0 397.39 114.61 512 256 512C282.73 512 308.51 507.9 332.73 500.3C228.83 467.71 153.42 370.66 153.42 256C153.42 141.34 228.82 44.29 332.73 11.7ZM511.97 260.27C511.37 297.32 502.89 332.45 488.14 364.09C488.14 364.09 488.13 364.09 488.12 364.09C468.37 356.09 454.41 336.73 454.41 314.09C454.41 284.31 478.56 260.17 508.34 260.17C509.55 260.17 510.75 260.21 511.96 260.29C511.96 260.29 511.97 260.27 511.97 260.27Z" id="bDEVy89cw"></path><path d="M302.33 507.81C287.3 510.56 271.82 512 256 512C240.18 512 224.7 510.55 209.67 507.81C214.95 487.13 233.7 471.87 256 471.87C278.3 471.87 297.05 487.14 302.33 507.81Z" id="a3KQCNWm1O"></path><path d="M349.01 388.91C349.01 406.15 335.03 420.13 317.78 420.13C300.54 420.13 286.56 406.18 286.56 388.91C286.56 371.67 300.54 357.68 317.78 357.68C335.02 357.68 349.01 371.66 349.01 388.91Z" id="b4gcZtCHtH"></path><path d="M374.39 284.76C362.2 284.76 352.31 294.64 352.31 306.83C352.31 319.03 362.2 328.91 374.39 328.91C386.58 328.91 396.47 319.03 396.47 306.83C396.47 294.64 386.58 284.76 374.39 284.76Z" id="a2kCIu8Yxq"></path><path d="M326.84 129.27C294.03 129.27 267.44 155.86 267.44 188.67C267.44 221.48 294.03 248.08 326.84 248.08C359.65 248.08 386.25 221.48 386.25 188.67C386.25 155.86 359.65 129.27 326.84 129.27Z" id="g2KnFVBYK7"></path><path d="M153.42 272.16C134.54 272.16 119.23 287.47 119.23 306.36C119.23 325.24 134.54 340.55 153.42 340.55C172.31 340.55 187.62 325.24 187.62 306.36C187.62 287.47 172.31 272.16 153.42 272.16Z" id="j1xBn5MHlZ"></path><path d="M166.79 337.84C159.75 317.02 155.35 295 153.93 272.17C153.88 272.17 153.47 272.16 153.42 272.16C134.53 272.16 119.23 287.47 119.23 306.36C119.23 325.25 134.53 340.55 153.42 340.55C158.01 340.56 162.56 339.64 166.79 337.84ZM110.85 218.96C110.85 230.49 101.5 239.85 89.96 239.85C78.42 239.85 69.1 230.5 69.1 218.96C69.1 207.44 78.43 198.09 89.96 198.09C101.49 198.09 110.85 207.44 110.85 218.96ZM182.79 38.56C182.79 95.05 136.98 140.85 80.49 140.85C64.12 140.87 47.99 136.95 33.45 129.41C33.45 129.41 33.44 129.41 33.44 129.41C65.15 73.8 117.08 31.23 179.22 11.72C181.54 20.28 182.79 29.27 182.79 38.56Z" id="a2KAybIyXq"></path></defs><g><g><g><use xlink:href="#c1J5zuqqs" opacity="1" fill="#fef0ae" fill-opacity="1"></use><g><use xlink:href="#c1J5zuqqs" opacity="1" fill-opacity="0" stroke="#000000" stroke-width="1" stroke-opacity="0"></use></g></g><g><use xlink:href="#bDEVy89cw" opacity="1" fill="#fee97d" fill-opacity="1"></use><g><use xlink:href="#bDEVy89cw" opacity="1" fill-opacity="0" stroke="#000000" stroke-width="1" stroke-opacity="0"></use></g></g><g><use xlink:href="#a3KQCNWm1O" opacity="1" fill="#fedf30" fill-opacity="1"></use><g><use xlink:href="#a3KQCNWm1O" opacity="1" fill-opacity="0" stroke="#000000" stroke-width="1" stroke-opacity="0"></use></g></g><g><use xlink:href="#b4gcZtCHtH" opacity="1" fill="#fee97d" fill-opacity="1"></use><g><use xlink:href="#b4gcZtCHtH" opacity="1" fill-opacity="0" stroke="#000000" stroke-width="1" stroke-opacity="0"></use></g></g><g><use xlink:href="#a2kCIu8Yxq" opacity="1" fill="#fee97d" fill-opacity="1"></use><g><use xlink:href="#a2kCIu8Yxq" opacity="1" fill-opacity="0" stroke="#000000" stroke-width="1" stroke-opacity="0"></use></g></g><g><use xlink:href="#g2KnFVBYK7" opacity="1" fill="#fee97d" fill-opacity="1"></use><g><use xlink:href="#g2KnFVBYK7" opacity="1" fill-opacity="0" stroke="#000000" stroke-width="1" stroke-opacity="0"></use></g></g><g><use xlink:href="#j1xBn5MHlZ" opacity="1" fill="#fee45a" fill-opacity="1"></use><g><use xlink:href="#j1xBn5MHlZ" opacity="1" fill-opacity="0" stroke="#000000" stroke-width="1" stroke-opacity="0"></use></g></g><g><use xlink:href="#a2KAybIyXq" opacity="1" fill="#fedf30" fill-opacity="1"></use><g><use xlink:href="#a2KAybIyXq" opacity="1" fill-opacity="0" stroke="#000000" stroke-width="1" stroke-opacity="0"></use></g></g></g></g></svg>