<?xml version="1.0" encoding="UTF-8" standalone="no"?>
<!DOCTYPE svg PUBLIC "-//W3C//DTD SVG 1.1//EN" "http://www.w3.org/Graphics/SVG/1.1/DTD/svg11.dtd">
<svg version="1.1" xmlns="http://www.w3.org/2000/svg" xmlns:xlink="http://www.w3.org/1999/xlink" preserveAspectRatio="xMidYMid meet" viewBox="0 0 683 683" width="128" height="128"><defs><path d="M681.33 249.82C673.94 222.17 610.53 217.72 596.52 193.51C582.31 168.95 610.01 111.85 590.08 91.92C570.15 71.99 513.05 99.68 488.49 85.48C464.28 71.47 459.83 8.06 432.18 0.67C405.45 -6.47 369.97 46.02 341 46.02C312.03 46.02 276.55 -6.47 249.82 0.67C222.17 8.06 217.72 71.47 193.51 85.48C168.95 99.69 111.85 71.99 91.92 91.92C71.99 111.85 99.68 168.95 85.48 193.51C71.47 217.72 8.06 222.17 0.67 249.82C-6.47 276.55 46.02 312.03 46.02 341C46.02 369.97 -6.47 405.45 0.67 432.18C8.06 459.83 71.47 464.28 85.48 488.49C99.69 513.05 71.99 570.15 91.92 590.08C111.85 610.01 168.95 582.32 193.51 596.52C217.72 610.53 222.17 673.94 249.82 681.34C276.55 688.48 312.03 635.98 341 635.98C369.97 635.98 405.45 688.46 432.18 681.34C459.83 673.94 464.28 610.53 488.49 596.52C513.05 582.31 570.15 610.01 590.08 590.08C610.01 570.15 582.32 513.05 596.52 488.49C610.53 464.28 673.94 459.83 681.34 432.18C688.48 405.45 635.98 369.97 635.98 341C635.98 312.03 688.46 276.55 681.33 249.82Z" id="a5Yi9caFq5"></path><path d="M372.66 566.53C362.31 568 351.75 568.72 341.01 568.72C215.24 568.72 113.27 466.76 113.27 341C113.27 215.24 215.24 113.28 341.01 113.28C351.75 113.28 362.31 114.02 372.66 115.47C483.44 130.87 568.72 225.98 568.72 341C568.72 456.02 483.44 551.12 372.66 566.53Z" id="b2QVRuac2P"></path><path d="M372.66 566.53C261.88 551.12 176.59 456.02 176.59 341C176.59 225.98 261.88 130.87 372.66 115.47C483.44 130.87 568.72 225.98 568.72 341C568.72 456.02 483.44 551.12 372.66 566.53Z" id="k3SO40XuV"></path><path d="M200.25 302.63C196.17 298.55 196.17 291.94 200.25 287.86C223.6 264.51 261.6 264.51 284.95 287.86C289.03 291.94 289.03 298.55 284.95 302.63C280.87 306.7 274.26 306.7 270.18 302.63C254.97 287.41 230.23 287.41 215.01 302.63C213.06 304.59 210.4 305.69 207.63 305.69C204.86 305.69 202.21 304.59 200.25 302.63ZM466.99 302.63C451.78 287.41 427.03 287.42 411.82 302.63C407.74 306.7 401.13 306.7 397.05 302.63C392.98 298.55 392.98 291.94 397.05 287.86C420.4 264.51 458.4 264.51 481.75 287.86C485.83 291.94 485.83 298.55 481.75 302.63C479.72 304.66 477.04 305.69 474.37 305.69C471.6 305.69 468.94 304.59 466.99 302.63ZM281 388.85C276.92 384.77 276.92 378.17 281 374.09C285.08 370.01 291.68 370.01 295.76 374.09C307.84 386.17 323.91 392.82 341 392.82C358.09 392.82 374.17 386.17 386.24 374.09C390.32 370.01 396.93 370.01 401 374.09C405.08 378.17 405.08 384.77 401 388.85C385.12 404.82 363.52 413.77 341 413.7C318.48 413.77 296.88 404.82 281 388.85Z" id="dDPkkE9Cn"></path></defs><g><g><g><use xlink:href="#a5Yi9caFq5" opacity="1" fill="#e8e8e8" fill-opacity="1"></use><g><use xlink:href="#a5Yi9caFq5" opacity="1" fill-opacity="0" stroke="#000000" stroke-width="1" stroke-opacity="0"></use></g></g><g><use xlink:href="#b2QVRuac2P" opacity="1" fill="#a4a4a4" fill-opacity="1"></use><g><use xlink:href="#b2QVRuac2P" opacity="1" fill-opacity="0" stroke="#000000" stroke-width="1" stroke-opacity="0"></use></g></g><g><use xlink:href="#k3SO40XuV" opacity="1" fill="#d4d4d4" fill-opacity="1"></use><g><use xlink:href="#k3SO40XuV" opacity="1" fill-opacity="0" stroke="#000000" stroke-width="1" stroke-opacity="0"></use></g></g><g><use xlink:href="#dDPkkE9Cn" opacity="1" fill="#999999" fill-opacity="1"></use><g><use xlink:href="#dDPkkE9Cn" opacity="1" fill-opacity="0" stroke="#000000" stroke-width="1" stroke-opacity="0"></use></g></g></g></g></svg>